<svg width="257" height="184" viewBox="0 0 257 184" fill="none" xmlns="http://www.w3.org/2000/svg">
<g opacity="0.07">
<path d="M228.409 70.0933C231.636 76.0089 236.378 81.5822 236.769 88.2311C237.404 98.9378 226.991 106.956 222.738 116.88C217.507 129.053 221.907 143.378 217.262 155.747C213.889 164.693 205.676 171.88 195.996 174.227C188.76 175.987 181.133 175.204 173.653 175.253C152.436 175.449 131.267 182.782 110.293 179.458C99.9289 177.796 90.1511 173.591 79.7866 172.271C67.32 170.658 52.8 172.613 43.9022 164.156C31.4355 152.324 40.6755 130.569 31.3378 116.391C28.3066 111.796 23.4666 108.227 21.8533 103.093C19.9466 97.0311 23.0266 90.6267 26.84 85.4444C30.6533 80.3111 35.3955 75.5689 37.4489 69.5556C39.3066 64.1289 38.1822 58.2133 35.8844 52.9333C32.3644 44.8178 42.1911 26.24 61.7466 27.6578C70.6933 28.2933 74.7511 17.9289 84.5778 15.0444C95.8222 11.7689 109.951 14.4089 118.213 17.1467C126.622 19.9333 137.036 21.4 141.876 14.2622C148.671 4.14222 169.009 2.57778 178.151 19.0044C181.476 24.9689 184.458 29.6622 191.547 29.1733C229.973 26.68 223.569 61.3422 228.409 70.0933ZM123.64 14.7022C123.64 16.0711 123.64 18.4178 129.702 18.0267C131.56 17.9289 133.076 16.9022 133.076 15.5333C133.076 14.1644 131.56 13.04 129.702 13.04C127.844 13.0889 123.64 12.5022 123.64 14.7022ZM63.9466 21.4C63.7511 21.4978 63.6533 21.6933 63.5555 21.8889C63.1644 22.4756 62.48 22.8667 61.7955 23.16C61.4044 23.3067 60.9644 23.4533 60.6711 23.7467C60.1822 24.2355 60.2311 25.1155 60.7689 25.5067C61.2089 25.8489 61.7955 25.8978 62.3822 25.8489C64.4844 25.7511 66.5378 24.9689 68.2 23.6978C70.3022 21.9867 65.12 20.7644 63.9466 21.4ZM58.1777 24.5289C57.4444 24.04 56.5644 24.3333 55.8311 24.6756C55.6844 24.7733 55.5378 24.8711 55.4889 25.0178C55.3911 25.36 55.8311 25.6044 56.1733 25.7022C56.7111 25.8489 57.2977 26.0444 57.8355 25.8489C58.3733 25.7022 58.9111 25.0178 58.1777 24.5289ZM31.3866 68.3822C30.8489 66.7689 29.6266 65.9867 27.72 66.9155C26.5955 67.4533 25.8133 68.48 25.1289 69.5067C24.0533 71.1689 23.1244 73.0267 23.3689 74.9333C23.5155 76.3511 24.3466 77.6711 25.52 78.5022C26.0089 78.8444 26.5955 79.0889 27.1822 79.0889C27.8666 79.0889 28.4533 78.6978 28.9911 78.3067C30.2133 77.3778 31.1422 76.1067 32.0711 74.9333C32.56 74.2978 33.0489 73.6133 33.1466 72.88C33.3911 71.1689 31.8755 69.8489 31.3866 68.3822ZM227.92 117.76C227.431 117.956 226.942 118.2 226.698 118.64C226.502 118.982 226.404 119.373 226.404 119.764C226.307 120.596 226.258 121.378 226.258 122.209C226.258 123.089 226.356 124.067 227.04 124.702C227.969 125.533 229.436 125.24 230.609 124.898C231.293 124.702 232.027 124.507 232.467 123.969C232.809 123.578 232.907 123.089 233.004 122.6C233.298 120.987 234.178 118.542 233.2 117.662C232.124 116.782 229.631 117.076 227.92 117.76ZM160.013 180.533C159.769 180.778 159.524 181.022 159.378 181.316C158.987 182.147 159.378 183.222 160.258 183.564C160.698 183.76 161.187 183.76 161.676 183.711C165.733 183.662 170.084 183.516 173.311 181.169C173.702 180.876 174.093 180.484 174.044 180.044C173.947 179.458 173.262 179.213 172.676 179.116C168.618 178.382 163.24 177.502 160.013 180.533ZM83.2577 174.276C79.7377 173.787 74.1644 173.151 74.1644 175.987C74.1644 177.062 79.1511 178.089 79.9333 178.284C82.4755 178.92 84.8711 179.8 87.3155 180.729C91.9111 182.44 95.6266 180.142 91.96 177.551C88.9778 175.449 86.0933 174.667 83.2577 174.276Z" fill="#2A94F4"/>
</g>
<g opacity="0.51">
<path d="M172.236 138.978C171.111 136.827 173.702 134.529 176.098 134.089C178.493 133.649 181.182 133.991 183.04 132.476C185.582 130.471 185.436 126.12 188.222 124.507C190.471 123.236 193.453 124.458 195.8 123.431C198.733 122.16 199.564 118.053 202.498 116.684C204.796 115.56 207.827 116.831 209 119.08C210.173 121.329 209.636 124.262 208.022 126.267C206.751 127.782 204.844 128.907 204.062 130.716C202.84 133.6 204.796 137.071 203.622 140.004C201.52 145.382 191.547 143.769 189.787 149.293C189.396 150.516 189.542 151.836 189.444 153.156C189.151 156.969 186.462 160.293 183.138 162.2C179.813 164.107 175.902 164.742 172.089 165.036C170.524 165.133 168.862 165.182 167.493 164.449C166.173 163.764 165.293 162.542 164.56 161.222C159.964 152.96 158.058 142.107 172.236 138.978Z" fill="#FF5555"/>
</g>
<g opacity="0.51">
<path d="M97.7778 131.498C99.3422 128.956 96.4089 125.924 93.5244 125.191C90.64 124.458 87.3644 124.604 85.1644 122.6C82.28 119.911 82.8178 114.582 79.5422 112.382C76.9022 110.622 73.1866 111.844 70.3511 110.378C66.8311 108.569 66.2444 103.436 62.8222 101.48C60.0844 99.9155 56.2711 101.138 54.6089 103.827C52.9467 106.516 53.3378 110.133 55.1466 112.724C56.5644 114.729 58.7644 116.244 59.5955 118.542C60.8666 122.16 58.1289 126.267 59.2533 129.933C61.3555 136.729 73.7244 135.653 75.2889 142.596C75.6311 144.16 75.3378 145.724 75.3378 147.338C75.3378 152.031 78.32 156.382 82.2311 159.022C86.1422 161.662 90.8355 162.836 95.48 163.52C97.3867 163.813 99.3911 164.009 101.151 163.227C102.813 162.542 104.036 161.076 105.062 159.56C111.467 149.733 114.791 136.631 97.7778 131.498Z" fill="#FF5555"/>
</g>
<path d="M200.053 13.9689L196.631 15.1422L195.164 10.8889C192.427 3.01778 183.773 -1.18667 175.902 1.55111C168.031 4.28889 163.827 12.9422 166.564 20.8133L168.031 25.0667L164.609 26.24C161.92 27.1689 160.502 30.1022 161.431 32.7911L171.062 60.6089C171.991 63.2978 174.973 64.7644 177.613 63.8355L213.009 51.5644C215.698 50.6356 217.164 47.6533 216.236 44.9644L206.604 17.1467C205.724 14.4578 202.791 12.9911 200.053 13.9689ZM173.067 18.5156C171.551 14.2133 173.849 9.47111 178.151 7.95555C182.453 6.44 187.196 8.73778 188.711 13.0889L190.178 17.3422L174.533 22.7689L173.067 18.5156ZM193.6 43.8889L196.044 50.9778C196.142 51.2711 195.947 51.5644 195.653 51.7111L192.231 52.8844C191.987 52.9822 191.644 52.8356 191.547 52.5422L189.102 45.4533C186.462 45.3556 184.018 43.6933 183.089 41.0044C181.916 37.5822 183.724 33.8178 187.147 32.5956C190.569 31.4222 194.333 33.2311 195.556 36.6533C196.484 39.3422 195.604 42.1778 193.6 43.8889Z" fill="#FF5555"/>
<path d="M163.338 151.689C166.809 150.222 169.889 147.436 172.48 144.796C179.422 137.609 183.724 128.271 186.022 118.591C188.076 109.84 188.516 100.844 188.124 91.8978C188.076 91.1645 186.902 91.1156 186.951 91.8978C187.929 111.991 183.92 136.582 165.978 148.804C164.951 149.489 163.924 150.173 162.8 150.662C162.067 150.956 162.653 151.982 163.338 151.689Z" fill="#FF5555"/>
<path d="M186.169 115.218C186.169 115.218 187.293 108.716 195.898 107.689C195.947 107.689 192.769 115.364 186.169 115.218Z" fill="#FF5555"/>
<path d="M183.382 124.8C183.382 124.8 186.022 118.738 194.627 119.764C194.578 119.764 189.738 126.511 183.382 124.8Z" fill="#FF5555"/>
<path d="M179.716 133.307C179.716 133.307 183.627 127.978 191.791 130.911C191.791 130.911 185.533 136.387 179.716 133.307Z" fill="#FF5555"/>
<path d="M187.489 105.098C187.489 105.098 188.613 98.6933 197.071 97.7155C197.071 97.7155 193.991 105.293 187.489 105.098Z" fill="#FF5555"/>
<path d="M187.636 94C187.636 94 182.796 89.6489 186.462 81.9244C186.462 81.9733 191.204 88.5733 187.636 94Z" fill="#FF5555"/>
<path d="M187.636 100.6C187.636 100.6 181.231 99.4267 180.302 90.9689C180.351 90.92 187.88 94.0978 187.636 100.6Z" fill="#FF5555"/>
<path d="M187 110.329C187 110.329 180.596 109.156 179.667 100.698C179.716 100.698 187.244 103.827 187 110.329Z" fill="#FF5555"/>
<path d="M185.338 119.471C185.338 119.471 179.031 117.858 178.738 109.351C178.738 109.302 186.022 112.969 185.338 119.471Z" fill="#FF5555"/>
<path d="M182.453 128.564C182.453 128.564 176.147 126.951 175.853 118.444C175.853 118.444 183.138 122.111 182.453 128.564Z" fill="#FF5555"/>
<path d="M97.9244 149.244C94.4533 147.778 91.3733 144.991 88.7822 142.351C81.84 135.164 77.5378 125.827 75.24 116.147C73.1867 107.396 72.7467 98.4 73.1378 89.4534C73.1867 88.72 74.36 88.6711 74.3111 89.4534C73.3333 109.547 77.3422 134.138 95.2844 146.36C96.3111 147.044 97.3378 147.729 98.4622 148.218C99.1956 148.511 98.6089 149.538 97.9244 149.244Z" fill="#FF5555"/>
<path d="M75.0933 112.773C75.0933 112.773 73.9689 106.271 65.3644 105.244C65.3156 105.244 68.4933 112.92 75.0933 112.773Z" fill="#FF5555"/>
<path d="M77.9289 122.356C77.9289 122.356 75.2889 116.293 66.6844 117.32C66.6844 117.32 71.5244 124.067 77.9289 122.356Z" fill="#FF5555"/>
<path d="M81.5955 130.862C81.5955 130.862 77.6844 125.533 69.52 128.467C69.4711 128.467 75.7289 133.942 81.5955 130.862Z" fill="#FF5555"/>
<path d="M73.7733 102.653C73.7733 102.653 72.6489 96.2489 64.1911 95.2711C64.1911 95.2711 67.2711 102.849 73.7733 102.653Z" fill="#FF5555"/>
<path d="M73.6756 91.5556C73.6756 91.5556 78.5156 87.2044 74.8489 79.48C74.8489 79.5289 70.0578 86.1289 73.6756 91.5556Z" fill="#FF5555"/>
<path d="M73.6267 98.1555C73.6267 98.1555 80.0311 96.9822 80.96 88.5244C80.96 88.4755 73.3822 91.6533 73.6267 98.1555Z" fill="#FF5555"/>
<path d="M74.2622 107.884C74.2622 107.884 80.6667 106.711 81.5956 98.2533C81.5956 98.2533 74.0178 101.382 74.2622 107.884Z" fill="#FF5555"/>
<path d="M75.9244 117.027C75.9244 117.027 82.2311 115.413 82.5244 106.907C82.5244 106.858 75.24 110.524 75.9244 117.027Z" fill="#FF5555"/>
<path d="M78.8089 126.12C78.8089 126.12 85.1156 124.507 85.4089 116C85.4089 116 78.1245 119.667 78.8089 126.12Z" fill="#FF5555"/>
<path d="M159.818 166.258H104.427C98.7067 166.258 94.1111 161.613 94.1111 155.942V27.5111C94.1111 21.7911 98.7556 17.1956 104.427 17.1956H159.769C165.489 17.1956 170.084 21.84 170.084 27.5111V155.942C170.133 161.613 165.489 166.258 159.818 166.258Z" fill="#2A94F4"/>
<path d="M159.378 160.978H104.867C100.858 160.978 97.6311 157.751 97.6311 153.742V28.7822C97.6311 24.7733 100.858 21.5467 104.867 21.5467H159.378C163.387 21.5467 166.613 24.7733 166.613 28.7822V153.742C166.613 157.751 163.387 160.978 159.378 160.978Z" fill="#F7F7F7"/>
<path d="M152.778 21.5467H148.28C146.911 21.5467 145.787 22.6711 145.787 24.04V25.8C145.787 27.1689 144.662 28.2933 143.293 28.2933H123.298C121.929 28.2933 120.804 27.1689 120.804 25.8V24.04C120.804 22.6711 119.68 21.5467 118.311 21.5467H105.551V20.2756H152.778V21.5467Z" fill="#2A94F4"/>
<path opacity="0.17" d="M131.169 80.3111C136.677 80.3111 141.142 75.8459 141.142 70.3378C141.142 64.8297 136.677 60.3645 131.169 60.3645C125.661 60.3645 121.196 64.8297 121.196 70.3378C121.196 75.8459 125.661 80.3111 131.169 80.3111Z" fill="#2A94F4"/>
<path d="M135.031 68.04C135.031 70.1911 133.32 71.9022 131.169 71.9022C129.018 71.9022 127.307 70.1911 127.307 68.04C127.307 65.8889 129.018 64.1778 131.169 64.1778C133.32 64.1778 135.031 65.8889 135.031 68.04ZM136.987 83.9289V78.4044C136.987 75.3244 134.493 72.7822 131.364 72.7822H130.924C127.844 72.7822 125.302 75.2755 125.302 78.4044V83.9289C125.302 84.8089 125.987 85.4933 126.867 85.4933H135.422C136.302 85.4933 136.987 84.8089 136.987 83.9289Z" fill="#2A94F4"/>
<path opacity="0.17" d="M155.076 91.7022H107.262C105.062 91.7022 103.302 89.9422 103.302 87.7422C103.302 85.5422 105.062 83.7822 107.262 83.7822H155.076C157.276 83.7822 159.036 85.5422 159.036 87.7422C159.036 89.8933 157.276 91.7022 155.076 91.7022Z" fill="#2A94F4"/>
<path d="M153.413 88.7689H108.924C108.338 88.7689 107.898 88.3289 107.898 87.7422C107.898 87.1556 108.338 86.7155 108.924 86.7155H153.413C154 86.7155 154.44 87.1556 154.44 87.7422C154.44 88.28 154 88.7689 153.413 88.7689Z" fill="#2A94F4"/>
<path opacity="0.17" d="M155.124 105.88H107.311C105.111 105.88 103.351 104.12 103.351 101.92C103.351 99.72 105.111 97.96 107.311 97.96H155.124C157.324 97.96 159.084 99.72 159.084 101.92C159.084 104.12 157.276 105.88 155.124 105.88Z" fill="#2A94F4"/>
<path d="M108.533 103.044C107.947 103.044 107.507 102.604 107.507 102.018C107.507 101.431 107.947 100.991 108.533 100.991C109.12 100.991 109.56 101.431 109.56 102.018C109.56 102.604 109.071 103.044 108.533 103.044ZM112.64 102.018C112.64 101.431 112.2 100.991 111.613 100.991C111.027 100.991 110.587 101.431 110.587 102.018C110.587 102.604 111.027 103.044 111.613 103.044C112.151 103.044 112.64 102.604 112.64 102.018ZM115.671 102.018C115.671 101.431 115.231 100.991 114.644 100.991C114.058 100.991 113.618 101.431 113.618 102.018C113.618 102.604 114.058 103.044 114.644 103.044C115.231 103.044 115.671 102.604 115.671 102.018ZM118.751 102.018C118.751 101.431 118.311 100.991 117.724 100.991C117.138 100.991 116.698 101.431 116.698 102.018C116.698 102.604 117.138 103.044 117.724 103.044C118.311 103.044 118.751 102.604 118.751 102.018ZM121.831 102.018C121.831 101.431 121.391 100.991 120.804 100.991C120.218 100.991 119.778 101.431 119.778 102.018C119.778 102.604 120.218 103.044 120.804 103.044C121.391 103.044 121.831 102.604 121.831 102.018ZM124.911 102.018C124.911 101.431 124.471 100.991 123.884 100.991C123.298 100.991 122.858 101.431 122.858 102.018C122.858 102.604 123.298 103.044 123.884 103.044C124.422 103.044 124.911 102.604 124.911 102.018ZM127.991 102.018C127.991 101.431 127.551 100.991 126.964 100.991C126.378 100.991 125.938 101.431 125.938 102.018C125.938 102.604 126.378 103.044 126.964 103.044C127.502 103.044 127.991 102.604 127.991 102.018Z" fill="#2A94F4"/>
<path d="M66.0978 151.689C66.0978 151.689 65.0711 157.36 64.8267 158.338C64.6311 159.12 64.0445 159.707 63.4578 160.293C63.2622 160.489 63.1156 160.88 63.0178 161.173C62.92 161.418 62.9689 161.711 63.1156 161.956C65.7067 166.111 71.1333 166.893 71.1822 166.551C71.28 165.916 70.2533 164.84 69.08 164.4C67.9067 164.009 67.0267 162.933 66.7333 161.711C66.4889 160.733 66.4889 159.707 66.7822 158.729L68.0534 154.378L66.0978 151.689Z" fill="#B97A59"/>
<path d="M62.92 152.324L64.1911 158.044C64.5822 159.804 64.3378 161.613 63.5067 163.227C63.0178 164.107 63.4578 165.231 64.3867 165.573C67.4667 166.649 73.3822 168.751 73.6267 168.507C74.9956 167.382 71.4267 165.476 68.7867 163.52C67.0267 162.2 66.3422 155.942 66.1956 151.2L63.36 151.933C63.1645 151.933 62.9689 152.08 62.92 152.324Z" fill="#B97A59"/>
<path d="M68.2 165.133C69.4711 165.573 70.84 165.671 72.1111 165.867C72.2578 165.867 72.4044 165.964 72.5022 166.013C73.7244 166.942 74.36 167.92 73.6267 168.507C73.3333 168.751 66.3422 166.258 63.6533 165.329C63.0667 165.133 62.8222 164.449 63.1156 163.911L63.6533 162.933C65.0711 163.813 66.5867 164.596 68.2 165.133Z" fill="#0B4870"/>
<path d="M64.24 93.7556C61.0133 94.88 59.0089 99.28 60.4756 103.387C61.3067 105.782 65.3644 114.044 69.3244 120.449C70.84 122.893 71.0356 125.973 69.7156 128.516C69.52 128.907 69.3244 129.347 69.1778 129.787C68.5422 131.938 66.88 144.062 66.0489 152.129C66.44 153.058 67.2711 154.231 68.1022 154.476C70.9378 147.191 75.24 134.089 75.9244 131.791C76.3155 130.52 76.7067 129.102 76.9511 127.733C78.9067 123.627 74.3111 103.924 72.9422 100.062C71.4756 96.0045 67.4178 92.6311 64.24 93.7556Z" fill="#0B4870"/>
<path d="M66.2445 70.9244C69.1065 70.9244 71.4267 67.9257 71.4267 64.2267C71.4267 60.5276 69.1065 57.5289 66.2445 57.5289C63.3824 57.5289 61.0622 60.5276 61.0622 64.2267C61.0622 67.9257 63.3824 70.9244 66.2445 70.9244Z" fill="#0B4870"/>
<path d="M65.0222 64.9111C64.9244 61.1956 61.9422 58.0667 58.2267 57.8711C54.9511 57.6756 52.1156 59.68 51.04 62.5644C50.6489 63.5911 49.6711 64.2267 48.5956 64.2267C48.1556 64.2267 47.7156 64.2756 47.2267 64.3733C44.5378 64.9111 42.3867 67.2089 42.1422 69.9956C41.8978 72.4889 43.0711 74.6889 44.9289 75.96C45.7111 76.4978 46.2 77.3778 46.2978 78.3556C46.9333 82.7556 50.9422 86.0311 55.5378 85.4933C59.4489 85.0533 62.6267 81.8267 62.9689 77.8667C63.1644 75.4711 62.3333 73.2222 60.8667 71.56C63.36 70.4355 65.0711 67.8444 65.0222 64.9111Z" fill="#0B4870"/>
<path d="M66.2444 55.3289C66.2444 55.3289 69.1778 57.1867 68.7867 59.6311C68.7867 59.6311 70.3511 58.5067 70.6933 54.7422C70.9867 52.1022 66.2444 55.3289 66.2444 55.3289Z" fill="#0B4870"/>
<path d="M70.9867 68.3822C72.5511 69.1644 74.1155 69.8 75.7289 70.1911C77.3422 70.5822 79.0044 70.5822 80.7155 70.3377C82.4755 70.0933 84.2844 69.6044 86.24 69.2622C88.1955 68.92 90.2489 68.8222 92.1555 69.1155C92.4978 69.1644 92.7422 69.5066 92.6933 69.8489C92.6444 70.1422 92.4 70.3867 92.1067 70.3867C90.2489 70.4844 88.5378 70.8267 86.7778 71.4622C85.0667 72.0489 83.3067 72.8311 81.3511 73.4178C79.3955 74.0044 77.1955 74.2489 75.0933 74.0044C72.9911 73.76 70.9866 73.1733 69.08 72.3911C67.9555 71.9511 67.3689 70.6311 67.8089 69.5067C68.2489 68.3822 69.5689 67.7955 70.6933 68.2355C70.7422 68.2355 70.7911 68.2844 70.84 68.2844L70.9867 68.3822Z" fill="#B97A59"/>
<path d="M69.52 83.2444C70.6933 79.7244 73.04 72.2444 72.8444 69.8489C72.6978 68.2844 71.4267 67.1111 69.8622 67.1111H59.6444C57.9822 67.1111 56.5644 68.4311 56.5156 70.1422C56.4178 73.0756 57.7867 79.7733 58.5689 83.2933H69.52V83.2444Z" fill="#FF5555"/>
<path d="M66.1466 152.373C66.2933 152.276 66.3911 152.08 66.3911 151.884C66.1955 144.404 65.7067 134.871 65.56 133.062C65.56 132.867 65.5111 132.671 65.4622 132.427C67.0755 123.578 67.32 104.609 67.4667 101.284C67.6622 96.9333 65.0222 91.9956 61.6489 91.8C58.2267 91.6533 54.56 95.1733 53.4844 99.1822C52.7511 101.822 55.5378 115.902 58.5689 126.12C59.2044 128.271 59.3022 130.52 58.96 132.72C58.7155 134.236 58.6667 135.849 58.7644 137.022C58.9111 138.831 60.9155 146.116 62.8222 152.422C62.8711 152.618 63.0178 152.764 63.2133 152.764C64.24 153.009 65.2178 152.96 66.1466 152.373Z" fill="#0B4870"/>
<path d="M57.4444 87.6933C57.9822 86.2267 58.1289 84.6133 57.8844 83.0978C57.3955 79.48 56.4667 72.7333 56.5644 69.8489C56.6133 68.2844 57.8844 67.1111 59.4 67.1111H60.9156C61.5022 68.4311 62.7244 69.4578 64.5822 69.4578C66.4889 69.4578 67.6622 68.4311 68.2489 67.1111H69.6667C68.1511 70.3867 68.6889 74.7378 71.3289 77.28C70.84 79.04 70.4 80.7511 70.1067 82.1689C69.6667 84.0756 69.8622 86.08 70.6444 87.8889C71.9644 91.0178 72.9911 96.0045 72.6489 98.0089C61.9422 101.04 54.56 95.6622 54.56 95.6622L57.4444 87.6933Z" fill="#FF5555"/>
<path d="M66.2444 67.7956L61.6489 67.3067L63.1156 62.2711L66.0978 62.6133L66.2444 67.7956Z" fill="#B97A59"/>
<path d="M66.0978 62.6133L63.1156 62.2222L62.6756 63.7867C63.36 64.52 64.1911 66.1822 65.2667 66.1822C65.6089 66.1822 65.9022 66.0845 66.1956 65.8889L66.0978 62.6133Z" fill="#AA6B4F"/>
<path d="M66.1956 65.0578C65.1689 65.0578 64.0933 64.5689 62.5778 63.2489C61.6978 62.5155 61.0622 61.1956 61.0622 60.2667V55.3289H68.64C68.64 55.3289 69.2267 57.9689 68.64 60.56C68.2489 62.5155 66.9778 65.0578 66.1956 65.0578Z" fill="#B97A59"/>
<path d="M62.3333 59.3378C62.3333 60.3155 61.8933 61.0978 61.3067 61.0978C60.72 61.0978 60.1333 59.8267 60.1333 58.8978C60.1333 57.92 60.7689 57.6267 61.3067 57.6267C61.8933 57.5778 62.3333 58.36 62.3333 59.3378Z" fill="#B97A59"/>
<path d="M60.1333 55.9156C60.1333 54.4 61.4045 53.1289 62.92 53.1289H65.4622C66.1956 53.1289 66.9289 52.9333 67.5156 52.5911C68.3956 52.1022 69.5689 52.2489 70.1556 53.08C70.84 53.96 71.1333 55.1822 69.4222 56.3067C68.5911 56.8444 67.3689 56.2578 66.5378 56.5022C66.4889 56.5022 66.44 56.5022 66.3911 56.5022H64.1422C63.36 56.5022 62.7733 57.1378 62.7244 57.92C62.7244 58.4089 62.2844 58.8 61.7956 58.8H61.6978L61.3556 57.6267L60.0844 59.3378V55.9156H60.1333Z" fill="#0B4870"/>
<path d="M94.8445 68.5778C94.8445 68.5778 93.6222 70.9733 92.7911 70.8267C91.96 70.68 91.3733 70.4844 91.52 69.2133C91.6667 67.9911 92.4489 66.3289 93.0844 65.4489C93.72 64.5689 95.48 63.5422 95.7733 63.5422C96.7022 63.5911 95.3333 65.0578 94.6978 65.84C94.0622 66.5734 93.4267 67.5022 93.8667 67.6978C94.3067 67.8933 95.4311 66.3778 96.0178 66.4267C96.6044 66.4756 94.8445 68.5778 94.8445 68.5778Z" fill="#B97A59"/>
<path d="M68.1022 55.2311C67.8578 56.3556 68.2 56.9911 64.5333 58.7511C60.8178 60.5111 59.6934 59.7778 58.52 61.6356C58.52 61.6356 59.0089 58.5067 61.0622 57.4311C63.1156 56.3556 66.6356 55.6711 67.76 53.1778C67.76 53.1778 68.2489 54.4978 68.1022 55.2311Z" fill="#0B4870"/>
<path d="M59.6444 71.7067C59.4489 71.8533 59.3022 71.9511 59.1556 72.0978C59.0089 72.1956 58.8622 72.2933 58.7156 72.3911C58.4222 72.5867 58.1289 72.7822 57.8356 72.9289C57.2489 73.2711 56.6133 73.5644 55.9778 73.8578C54.7067 74.3955 53.3378 74.7378 51.9689 74.9822C49.1822 75.3733 46.3467 74.9822 43.8045 74.0044C42.5333 73.5155 41.36 72.88 40.2356 72.1467C39.1111 71.4133 38.0844 70.5822 37.1067 69.7022C35.2 67.9422 33.5378 65.8889 32.12 63.7867C31.9733 63.5422 32.0222 63.2489 32.2667 63.1022C32.4622 62.9555 32.7556 63.0044 32.9022 63.2C34.6133 65.0578 36.3733 66.7689 38.3289 68.2355C40.2844 69.6533 42.3867 70.8756 44.6356 71.5111C45.76 71.8044 46.8845 72.0489 48.0089 72.0978C49.1333 72.1467 50.2578 72.0489 51.3822 71.8533C52.5067 71.6578 53.5822 71.2667 54.6089 70.8267C55.0978 70.5822 55.6356 70.3378 56.1244 70.0444C56.3689 69.8978 56.6133 69.7511 56.8089 69.6044C56.9067 69.5067 57.0533 69.4578 57.1511 69.36L57.4444 69.1644L57.5422 69.0667C58.2756 68.48 59.3511 68.6267 59.9378 69.36C60.4756 70.0933 60.3778 71.12 59.6444 71.7067Z" fill="#B97A59"/>
<path d="M67.3689 55.4756C67.3689 55.4756 67.5156 59.2889 70.84 61.0978C70.84 61.0978 69.3734 58.2133 69.4711 56.3556C69.5689 54.4489 67.1733 54.1556 67.3689 55.4756Z" fill="#0B4870"/>
<path d="M62.1867 163.52C61.9422 163.324 61.8444 162.933 61.9911 162.64C62.1378 162.396 62.48 161.76 62.7244 161.271C62.8222 161.076 63.1155 161.027 63.2622 161.222C64.9244 163.422 67.2222 164.889 69.8133 164.693C70.7422 165.084 71.5244 166.209 71.4267 166.747C71.4267 166.844 70.3022 167.138 68.9822 166.698C63.2133 164.791 62.1867 163.52 62.1867 163.52Z" fill="#0B4870"/>
<path d="M33.0978 61.5378C33.0978 61.5378 34.7111 63.6889 34.2222 64.4222C33.7333 65.1556 33.2444 65.5467 32.2178 64.8622C31.1422 64.1778 30.0178 62.76 29.48 61.7333C28.9422 60.7067 28.8445 58.7022 28.9422 58.4578C29.4311 57.6267 30.1644 59.5334 30.5556 60.4622C30.9467 61.3911 31.4845 62.3689 31.8756 62.0267C32.2667 61.7333 31.3378 60.0222 31.68 59.5333C32.0222 58.9956 33.0978 61.5378 33.0978 61.5378Z" fill="#B97A59"/>
<path d="M249.089 180.533H7.57778C3.37333 180.533 0 177.16 0 172.956C0 168.751 3.37333 165.378 7.57778 165.378H249.089C253.293 165.378 256.667 168.751 256.667 172.956C256.667 177.16 253.293 180.533 249.089 180.533Z" fill="#D3D3D3"/>
<path d="M60.0356 35.7733L56.8578 32.3022L17.9422 67.8933C15.2533 66.1822 11.8311 65.7422 8.60445 66.9644C3.22667 69.0178 0.537779 75.0311 2.64 80.4089C4.74222 85.7867 10.7067 88.4755 16.0844 86.3733C21.4622 84.32 24.1511 78.3067 22.0489 72.9289C21.9022 72.5378 21.7067 72.1466 21.5111 71.7555L50.9911 44.2311L54.5111 47.7022L58.0311 44.1333L55.2444 41.3466L56.32 40.0755L59.2045 42.6666L61.6489 39.88L58.6178 37.0933L60.0356 35.7733ZM14.7645 82.9511C11.2933 84.2711 7.33333 82.56 6.01333 79.04C4.69333 75.5689 6.40444 71.6089 9.92444 70.2889C13.3956 68.9689 17.3556 70.68 18.6756 74.2C19.9956 77.72 18.2356 81.6311 14.7645 82.9511Z" fill="#FF5555"/>
</svg>
